<?xml version="1.0" encoding="UTF-8"?>
<svg xmlns="http://www.w3.org/2000/svg" xmlns:xlink="http://www.w3.org/1999/xlink" width="200px" height="61px" viewBox="0 0 200 61" version="1.1">
<defs>
<filter id="alpha" filterUnits="objectBoundingBox" x="0%" y="0%" width="100%" height="100%">
  <feColorMatrix type="matrix" in="SourceGraphic" values="0 0 0 0 1 0 0 0 0 1 0 0 0 0 1 0 0 0 1 0"/>
</filter>
<mask id="mask0">
  <g filter="url(#alpha)">
<rect x="0" y="0" width="200" height="61" style="fill:rgb(0%,0%,0%);fill-opacity:0.992157;stroke:none;"/>
  </g>
</mask>
<clipPath id="clip1">
  <rect x="0" y="0" width="200" height="61"/>
</clipPath>
<g id="surface5" clip-path="url(#clip1)">
<path style=" stroke:none;fill-rule:evenodd;fill:rgb(81.568629%,31.37255%,17.254902%);fill-opacity:1;" d="M 32.703125 60.882812 C 31.367188 60.882812 30.027344 60.882812 28.691406 60.882812 C 13.933594 58.945312 4.683594 50.75 0.945312 36.292969 C -1.0625 21.121094 4.640625 9.972656 18.0625 2.835938 C 29.734375 -1.878906 40.519531 -0.382812 50.414062 7.328125 C 60.042969 16.375 63.070312 27.292969 59.503906 40.074219 C 54.726562 52.378906 45.792969 59.3125 32.703125 60.882812 Z M 32.703125 60.882812 "/>
</g>
<mask id="mask1">
  <g filter="url(#alpha)">
<rect x="0" y="0" width="200" height="61" style="fill:rgb(0%,0%,0%);fill-opacity:0.941176;stroke:none;"/>
  </g>
</mask>
<clipPath id="clip2">
  <rect x="0" y="0" width="200" height="61"/>
</clipPath>
<g id="surface8" clip-path="url(#clip2)">
<path style=" stroke:none;fill-rule:evenodd;fill:rgb(0%,0%,0%);fill-opacity:1;" d="M 109.917969 22.578125 C 111.175781 22.578125 112.4375 22.578125 113.695312 22.578125 C 113.695312 28.804688 113.695312 35.03125 113.695312 41.257812 C 112.4375 41.257812 111.175781 41.257812 109.917969 41.257812 C 109.957031 40.777344 109.917969 40.304688 109.800781 39.839844 C 108.089844 41.40625 106.085938 41.921875 103.777344 41.375 C 100.621094 40.105469 99.046875 37.742188 99.054688 34.28125 C 99.273438 28.941406 102.027344 26.578125 107.320312 27.191406 C 108.265625 27.507812 109.09375 28.019531 109.800781 28.726562 C 109.917969 26.679688 109.957031 24.628906 109.917969 22.578125 Z M 105.195312 30.382812 C 107.585938 29.980469 109.121094 30.925781 109.800781 33.21875 C 110.167969 37.109375 108.472656 38.644531 104.722656 37.828125 C 102.101562 35.121094 102.257812 32.640625 105.195312 30.382812 Z M 105.195312 30.382812 "/>
</g>
<mask id="mask2">
  <g filter="url(#alpha)">
<rect x="0" y="0" width="200" height="61" style="fill:rgb(0%,0%,0%);fill-opacity:0.952941;stroke:none;"/>
  </g>
</mask>
<clipPath id="clip3">
  <rect x="0" y="0" width="200" height="61"/>
</clipPath>
<g id="surface11" clip-path="url(#clip3)">
<path style=" stroke:none;fill-rule:evenodd;fill:rgb(0%,0%,0%);fill-opacity:1;" d="M 155.960938 22.578125 C 157.222656 22.578125 158.480469 22.578125 159.742188 22.578125 C 159.742188 28.804688 159.742188 35.03125 159.742188 41.257812 C 158.480469 41.257812 157.222656 41.257812 155.960938 41.257812 C 155.960938 35.03125 155.960938 28.804688 155.960938 22.578125 Z M 155.960938 22.578125 "/>
</g>
<mask id="mask3">
  <g filter="url(#alpha)">
<rect x="0" y="0" width="200" height="61" style="fill:rgb(0%,0%,0%);fill-opacity:0.92549;stroke:none;"/>
  </g>
</mask>
<clipPath id="clip4">
  <rect x="0" y="0" width="200" height="61"/>
</clipPath>
<g id="surface14" clip-path="url(#clip4)">
<path style=" stroke:none;fill-rule:evenodd;fill:rgb(0%,0%,0%);fill-opacity:1;" d="M 75.914062 23.523438 C 79.714844 22.914062 82.902344 24.019531 85.476562 26.835938 C 87.640625 30.285156 87.796875 33.832031 85.949219 37.476562 C 83.445312 40.859375 80.097656 42.160156 75.914062 41.375 C 70.714844 39.675781 68.472656 36.089844 69.183594 30.617188 C 70.109375 26.972656 72.355469 24.609375 75.914062 23.523438 Z M 76.625 26.835938 C 80.898438 26.332031 83.179688 28.226562 83.472656 32.507812 C 82.835938 37.441406 80.160156 39.132812 75.441406 37.59375 C 73.640625 36.351562 72.777344 34.617188 72.84375 32.390625 C 72.855469 29.644531 74.113281 27.792969 76.625 26.835938 Z M 76.625 26.835938 "/>
</g>
<mask id="mask4">
  <g filter="url(#alpha)">
<rect x="0" y="0" width="200" height="61" style="fill:rgb(0%,0%,0%);fill-opacity:0.976471;stroke:none;"/>
  </g>
</mask>
<clipPath id="clip5">
  <rect x="0" y="0" width="200" height="61"/>
</clipPath>
<g id="surface17" clip-path="url(#clip5)">
<path style=" stroke:none;fill-rule:evenodd;fill:rgb(0%,0%,0%);fill-opacity:1;" d="M 142.738281 23.761719 C 146.359375 23.761719 149.980469 23.761719 153.601562 23.761719 C 153.601562 24.707031 153.601562 25.652344 153.601562 26.597656 C 151.238281 26.597656 148.878906 26.597656 146.515625 26.597656 C 146.515625 28.097656 146.515625 29.59375 146.515625 31.089844 C 148.328125 31.089844 150.136719 31.089844 151.949219 31.089844 C 151.949219 32.035156 151.949219 32.984375 151.949219 33.929688 C 150.136719 33.929688 148.328125 33.929688 146.515625 33.929688 C 146.515625 36.371094 146.515625 38.816406 146.515625 41.257812 C 145.257812 41.257812 144 41.257812 142.738281 41.257812 C 142.738281 35.425781 142.738281 29.59375 142.738281 23.761719 Z M 142.738281 23.761719 "/>
</g>
<mask id="mask5">
  <g filter="url(#alpha)">
<rect x="0" y="0" width="200" height="61" style="fill:rgb(0%,0%,0%);fill-opacity:0.941176;stroke:none;"/>
  </g>
</mask>
<clipPath id="clip6">
  <rect x="0" y="0" width="200" height="61"/>
</clipPath>
<g id="surface20" clip-path="url(#clip6)">
<path style=" stroke:none;fill-rule:evenodd;fill:rgb(0%,0%,0%);fill-opacity:1;" d="M 95.75 27.070312 C 96.378906 27.070312 97.007812 27.070312 97.640625 27.070312 C 97.640625 28.332031 97.640625 29.59375 97.640625 30.855469 C 96.773438 30.960938 95.90625 31.078125 95.042969 31.210938 C 94.449219 31.484375 94.019531 31.917969 93.742188 32.507812 C 93.402344 35.40625 93.285156 38.324219 93.386719 41.257812 C 92.128906 41.257812 90.871094 41.257812 89.609375 41.257812 C 89.609375 36.609375 89.609375 31.957031 89.609375 27.308594 C 90.871094 27.308594 92.128906 27.308594 93.386719 27.308594 C 93.351562 27.867188 93.390625 28.417969 93.507812 28.964844 C 93.617188 28.625 93.8125 28.347656 94.097656 28.136719 C 94.664062 27.773438 95.214844 27.421875 95.75 27.070312 Z M 95.75 27.070312 "/>
</g>
<mask id="mask6">
  <g filter="url(#alpha)">
<rect x="0" y="0" width="200" height="61" style="fill:rgb(0%,0%,0%);fill-opacity:0.929412;stroke:none;"/>
  </g>
</mask>
<clipPath id="clip7">
  <rect x="0" y="0" width="200" height="61"/>
</clipPath>
<g id="surface23" clip-path="url(#clip7)">
<path style=" stroke:none;fill-rule:evenodd;fill:rgb(0%,0%,0%);fill-opacity:1;" d="M 121.25 27.070312 C 127.222656 26.484375 130.171875 29.164062 130.105469 35.109375 C 126.78125 35.34375 123.433594 35.421875 120.070312 35.347656 C 120.414062 37.859375 121.832031 38.84375 124.320312 38.300781 C 124.90625 37.992188 125.378906 37.558594 125.738281 37 C 127.066406 36.765625 128.40625 36.6875 129.753906 36.765625 C 129.105469 39.109375 127.609375 40.644531 125.265625 41.375 C 118.46875 41.976562 115.515625 38.863281 116.410156 32.035156 C 117.132812 29.464844 118.746094 27.808594 121.25 27.070312 Z M 121.960938 30.144531 C 123.742188 29.757812 125.117188 30.308594 126.09375 31.800781 C 126.207031 32.1875 126.246094 32.582031 126.210938 32.984375 C 124.164062 32.984375 122.117188 32.984375 120.070312 32.984375 C 120.238281 31.714844 120.867188 30.769531 121.960938 30.144531 Z M 121.960938 30.144531 "/>
</g>
<mask id="mask7">
  <g filter="url(#alpha)">
<rect x="0" y="0" width="200" height="61" style="fill:rgb(0%,0%,0%);fill-opacity:0.937255;stroke:none;"/>
  </g>
</mask>
<clipPath id="clip8">
  <rect x="0" y="0" width="200" height="61"/>
</clipPath>
<g id="surface26" clip-path="url(#clip8)">
<path style=" stroke:none;fill-rule:evenodd;fill:rgb(0%,0%,0%);fill-opacity:1;" d="M 138.726562 27.070312 C 139.277344 27.070312 139.828125 27.070312 140.378906 27.070312 C 140.378906 28.332031 140.378906 29.59375 140.378906 30.855469 C 139.214844 30.902344 138.113281 31.179688 137.070312 31.683594 C 136.84375 32.019531 136.648438 32.371094 136.480469 32.746094 C 136.164062 35.574219 136.046875 38.410156 136.128906 41.257812 C 134.867188 41.257812 133.609375 41.257812 132.347656 41.257812 C 132.347656 36.609375 132.347656 31.957031 132.347656 27.308594 C 133.609375 27.308594 134.867188 27.308594 136.128906 27.308594 C 136.089844 27.867188 136.128906 28.417969 136.246094 28.964844 C 136.949219 28.125 137.773438 27.492188 138.726562 27.070312 Z M 138.726562 27.070312 "/>
</g>
<mask id="mask8">
  <g filter="url(#alpha)">
<rect x="0" y="0" width="200" height="61" style="fill:rgb(0%,0%,0%);fill-opacity:0.921569;stroke:none;"/>
  </g>
</mask>
<clipPath id="clip9">
  <rect x="0" y="0" width="200" height="61"/>
</clipPath>
<g id="surface29" clip-path="url(#clip9)">
<path style=" stroke:none;fill-rule:evenodd;fill:rgb(0%,0%,0%);fill-opacity:1;" d="M 167.53125 27.070312 C 175.039062 26.667969 177.992188 30.136719 176.386719 37.476562 C 173.953125 41.386719 170.527344 42.53125 166.117188 40.902344 C 163.578125 39.449219 162.320312 37.242188 162.335938 34.28125 C 162.429688 30.660156 164.164062 28.257812 167.53125 27.070312 Z M 168.476562 30.382812 C 172.355469 30.335938 173.8125 32.226562 172.84375 36.054688 C 171.597656 38.261719 169.828125 38.773438 167.53125 37.59375 C 165.917969 35.734375 165.722656 33.722656 166.941406 31.5625 C 167.40625 31.078125 167.917969 30.683594 168.476562 30.382812 Z M 168.476562 30.382812 "/>
</g>
<mask id="mask9">
  <g filter="url(#alpha)">
<rect x="0" y="0" width="200" height="61" style="fill:rgb(0%,0%,0%);fill-opacity:0.92549;stroke:none;"/>
  </g>
</mask>
<clipPath id="clip10">
  <rect x="0" y="0" width="200" height="61"/>
</clipPath>
<g id="surface32" clip-path="url(#clip10)">
<path style=" stroke:none;fill-rule:evenodd;fill:rgb(0%,0%,0%);fill-opacity:1;" d="M 177.6875 27.308594 C 178.957031 27.230469 180.214844 27.308594 181.464844 27.542969 C 182.210938 30.695312 182.957031 33.847656 183.707031 37 C 184.714844 33.828125 185.542969 30.597656 186.1875 27.308594 C 187.601562 27.308594 189.019531 27.308594 190.4375 27.308594 C 191.074219 30.496094 191.863281 33.648438 192.796875 36.765625 C 193.621094 33.703125 194.410156 30.628906 195.160156 27.542969 C 196.328125 27.308594 197.511719 27.230469 198.703125 27.308594 C 197.429688 31.882812 196.128906 36.453125 194.804688 41.019531 C 193.386719 41.335938 191.972656 41.335938 190.554688 41.019531 C 189.769531 38.027344 188.980469 35.03125 188.195312 32.035156 C 187.40625 35.105469 186.660156 38.179688 185.949219 41.257812 C 184.523438 41.335938 183.109375 41.257812 181.699219 41.019531 C 180.265625 36.476562 178.925781 31.902344 177.6875 27.308594 Z M 177.6875 27.308594 "/>
</g>
</defs>
<g id="surface1">
<use xlink:href="#surface5" mask="url(#mask0)"/>
<path style=" stroke:none;fill-rule:evenodd;fill:rgb(5.490196%,1.568628%,0.784314%);fill-opacity:1;" d="M 20.898438 9.339844 C 27.195312 9.300781 33.492188 9.339844 39.789062 9.457031 C 40.769531 9.8125 41.441406 10.480469 41.792969 11.46875 C 41.875 17.851562 41.953125 24.234375 42.03125 30.617188 C 42.425781 31.011719 42.816406 31.40625 43.210938 31.800781 C 43.328125 32.980469 43.367188 34.164062 43.328125 35.347656 C 45.613281 35.351562 47.894531 35.390625 50.175781 35.464844 C 50.6875 35.660156 51.042969 36.015625 51.238281 36.527344 C 51.398438 39.523438 51.398438 42.519531 51.238281 45.511719 C 50.804688 46.734375 50.175781 47.835938 49.351562 48.824219 C 49.300781 49.671875 49.183594 50.5 48.996094 51.304688 C 45.765625 51.503906 42.539062 51.464844 39.316406 51.1875 C 39.132812 50.253906 39.015625 49.308594 38.960938 48.351562 C 38.355469 47.667969 37.84375 46.917969 37.425781 46.105469 C 31.757812 46.027344 26.09375 45.945312 20.425781 45.867188 C 19.746094 45.574219 19.3125 45.058594 19.125 44.332031 C 18.96875 33.21875 18.96875 22.105469 19.125 10.996094 C 19.539062 10.226562 20.128906 9.675781 20.898438 9.339844 Z M 20.898438 9.339844 "/>
<path style=" stroke:none;fill-rule:evenodd;fill:rgb(76.862746%,29.803923%,16.470589%);fill-opacity:1;" d="M 21.132812 10.757812 C 27.273438 10.71875 33.414062 10.757812 39.550781 10.875 C 40.191406 11.082031 40.507812 11.515625 40.496094 12.175781 C 37.898438 12.136719 35.300781 12.175781 32.703125 12.292969 C 32.378906 12.589844 32.144531 12.941406 31.996094 13.359375 C 30.894531 13.671875 29.792969 13.671875 28.691406 13.359375 C 28.542969 12.941406 28.304688 12.589844 27.980469 12.292969 C 25.378906 12.253906 22.78125 12.136719 20.1875 11.941406 C 20.34375 11.394531 20.660156 11 21.132812 10.757812 Z M 21.132812 10.757812 "/>
<path style=" stroke:none;fill-rule:evenodd;fill:rgb(80.392158%,30.980393%,17.254902%);fill-opacity:1;" d="M 20.425781 13.59375 C 22.707031 13.554688 24.992188 13.59375 27.273438 13.714844 C 27.453125 14.070312 27.6875 14.386719 27.980469 14.660156 C 29.640625 14.855469 31.292969 14.816406 32.941406 14.539062 C 33.066406 14.246094 33.226562 13.96875 33.410156 13.714844 C 35.773438 13.59375 38.132812 13.554688 40.496094 13.59375 C 40.535156 19.269531 40.496094 24.945312 40.378906 30.617188 C 39.90625 30.933594 39.511719 31.328125 39.195312 31.800781 C 39.117188 33.929688 39.039062 36.054688 38.960938 38.183594 C 37.957031 36.613281 36.660156 36.257812 35.066406 37.121094 C 34.515625 38.21875 34.4375 39.359375 34.828125 40.546875 C 30.113281 41.019531 25.3125 41.175781 20.425781 41.019531 C 20.425781 31.878906 20.425781 22.738281 20.425781 13.59375 Z M 20.425781 13.59375 "/>
<path style=" stroke:none;fill-rule:evenodd;fill:rgb(69.803923%,27.058825%,14.901961%);fill-opacity:1;" d="M 20.425781 13.59375 C 20.425781 22.738281 20.425781 31.878906 20.425781 41.019531 C 25.3125 41.175781 30.113281 41.019531 34.828125 40.546875 C 35.058594 40.621094 35.21875 40.78125 35.300781 41.019531 C 30.265625 41.257812 25.230469 41.335938 20.1875 41.257812 C 20.109375 31.996094 20.1875 22.777344 20.425781 13.59375 Z M 20.425781 13.59375 "/>
<path style=" stroke:none;fill-rule:evenodd;fill:rgb(7.058824%,2.352941%,1.176471%);fill-opacity:1;" d="M 23.96875 16.195312 C 28.21875 16.15625 32.46875 16.195312 36.71875 16.3125 C 36.835938 16.433594 36.953125 16.550781 37.070312 16.667969 C 37.265625 20.980469 37.226562 25.277344 36.953125 29.554688 C 32.488281 29.75 28.042969 29.710938 23.613281 29.4375 C 23.457031 25.179688 23.457031 20.925781 23.613281 16.667969 C 23.78125 16.539062 23.898438 16.382812 23.96875 16.195312 Z M 23.96875 16.195312 "/>
<path style=" stroke:none;fill-rule:evenodd;fill:rgb(81.176472%,31.37255%,17.254902%);fill-opacity:1;" d="M 25.148438 17.613281 C 26.25 17.613281 27.351562 17.613281 28.453125 17.613281 C 28.414062 19.113281 28.453125 20.609375 28.570312 22.105469 C 28.703125 22.230469 28.863281 22.308594 29.042969 22.34375 C 29.507812 22.078125 29.941406 21.761719 30.34375 21.398438 C 30.691406 21.628906 31.007812 21.90625 31.285156 22.226562 C 31.667969 22.394531 32.023438 22.355469 32.347656 22.105469 C 32.46875 20.609375 32.507812 19.113281 32.46875 17.613281 C 33.570312 17.613281 34.671875 17.613281 35.773438 17.613281 C 35.773438 21.160156 35.773438 24.707031 35.773438 28.253906 C 32.230469 28.253906 28.691406 28.253906 25.148438 28.253906 C 25.148438 24.707031 25.148438 21.160156 25.148438 17.613281 Z M 25.148438 17.613281 "/>
<path style=" stroke:none;fill-rule:evenodd;fill:rgb(75.294119%,29.019609%,16.078432%);fill-opacity:1;" d="M 29.632812 17.613281 C 30.105469 17.613281 30.578125 17.613281 31.050781 17.613281 C 31.089844 18.40625 31.050781 19.195312 30.933594 19.980469 C 30.53125 19.765625 30.097656 19.6875 29.632812 19.742188 C 29.632812 19.03125 29.632812 18.324219 29.632812 17.613281 Z M 29.632812 17.613281 "/>
<use xlink:href="#surface8" mask="url(#mask1)"/>
<use xlink:href="#surface11" mask="url(#mask2)"/>
<use xlink:href="#surface14" mask="url(#mask3)"/>
<use xlink:href="#surface17" mask="url(#mask4)"/>
<use xlink:href="#surface20" mask="url(#mask5)"/>
<use xlink:href="#surface23" mask="url(#mask6)"/>
<use xlink:href="#surface26" mask="url(#mask7)"/>
<use xlink:href="#surface29" mask="url(#mask8)"/>
<use xlink:href="#surface32" mask="url(#mask9)"/>
<path style=" stroke:none;fill-rule:evenodd;fill:rgb(63.529414%,24.313726%,13.333334%);fill-opacity:1;" d="M 25.148438 17.613281 C 25.148438 21.160156 25.148438 24.707031 25.148438 28.253906 C 28.691406 28.253906 32.230469 28.253906 35.773438 28.253906 C 32.195312 28.488281 28.574219 28.566406 24.910156 28.492188 C 24.832031 24.824219 24.914062 21.199219 25.148438 17.613281 Z M 25.148438 17.613281 "/>
<path style=" stroke:none;fill-rule:evenodd;fill:rgb(5.098039%,1.568628%,0.784314%);fill-opacity:1;" d="M 32.703125 31.089844 C 32.953125 31.054688 33.1875 31.09375 33.410156 31.210938 C 34.160156 31.957031 34.90625 32.707031 35.65625 33.457031 C 35.8125 33.691406 35.8125 33.929688 35.65625 34.164062 C 33.804688 36.015625 31.957031 37.867188 30.105469 39.722656 C 29.792969 39.878906 29.476562 39.878906 29.160156 39.722656 C 27.9375 38.613281 26.675781 37.546875 25.382812 36.527344 C 25.117188 36.15625 25.078125 35.761719 25.265625 35.347656 C 25.984375 34.546875 26.773438 33.835938 27.625 33.21875 C 28.191406 33.402344 28.703125 33.679688 29.160156 34.046875 C 29.398438 34.203125 29.632812 34.203125 29.871094 34.046875 C 30.863281 33.09375 31.808594 32.105469 32.703125 31.089844 Z M 32.703125 31.089844 "/>
<path style=" stroke:none;fill-rule:evenodd;fill:rgb(79.607844%,30.588236%,16.862746%);fill-opacity:1;" d="M 40.730469 31.800781 C 41.121094 31.75 41.472656 31.828125 41.792969 32.035156 C 41.914062 34.871094 41.953125 37.710938 41.914062 40.546875 C 42.386719 40.546875 42.855469 40.546875 43.328125 40.546875 C 43.289062 39.285156 43.328125 38.023438 43.449219 36.765625 C 43.761719 36.449219 44.078125 36.449219 44.390625 36.765625 C 44.511719 38.023438 44.550781 39.285156 44.511719 40.546875 C 44.980469 40.546875 45.453125 40.546875 45.925781 40.546875 C 45.847656 39.277344 45.929688 38.015625 46.164062 36.765625 C 46.589844 36.445312 46.945312 36.523438 47.226562 37 C 47.34375 38.179688 47.382812 39.363281 47.34375 40.546875 C 47.816406 40.546875 48.289062 40.546875 48.761719 40.546875 C 48.722656 39.285156 48.761719 38.023438 48.878906 36.765625 C 49.191406 36.449219 49.507812 36.449219 49.824219 36.765625 C 49.980469 39.679688 49.980469 42.597656 49.824219 45.511719 C 49.273438 46.378906 48.722656 47.246094 48.171875 48.113281 C 48.089844 48.746094 48.011719 49.375 47.933594 50.003906 C 45.472656 50.238281 42.996094 50.316406 40.496094 50.242188 C 40.535156 49.527344 40.496094 48.820312 40.378906 48.113281 C 39.917969 47.261719 39.367188 46.472656 38.726562 45.75 C 38.773438 43.5625 37.984375 41.75 36.363281 40.3125 C 35.8125 39.609375 35.695312 38.863281 36.007812 38.066406 C 36.324219 37.90625 36.640625 37.90625 36.953125 38.066406 C 37.742188 38.855469 38.527344 39.640625 39.316406 40.429688 C 39.695312 40.601562 40.050781 40.5625 40.378906 40.3125 C 40.421875 37.457031 40.539062 34.621094 40.730469 31.800781 Z M 40.730469 31.800781 "/>
<path style=" stroke:none;fill-rule:evenodd;fill:rgb(78.823531%,30.19608%,16.862746%);fill-opacity:1;" d="M 32.703125 32.984375 C 33.3125 33 33.785156 33.273438 34.121094 33.808594 C 32.710938 35.222656 31.292969 36.640625 29.871094 38.066406 C 29.632812 38.222656 29.398438 38.222656 29.160156 38.066406 C 28.484375 37.308594 27.738281 36.636719 26.917969 36.054688 C 27.363281 34.625 28.109375 34.507812 29.160156 35.703125 C 29.476562 35.859375 29.792969 35.859375 30.105469 35.703125 C 31.019531 34.828125 31.886719 33.917969 32.703125 32.984375 Z M 32.703125 32.984375 "/>
<path style=" stroke:none;fill-rule:evenodd;fill:rgb(64.313728%,24.705882%,13.725491%);fill-opacity:1;" d="M 36.71875 42.914062 C 31.285156 42.914062 25.855469 42.914062 20.425781 42.914062 C 20.425781 43.226562 20.425781 43.542969 20.425781 43.859375 C 20.199219 43.523438 20.121094 43.128906 20.1875 42.675781 C 25.738281 42.597656 31.25 42.675781 36.71875 42.914062 Z M 36.71875 42.914062 "/>
<path style=" stroke:none;fill-rule:evenodd;fill:rgb(81.176472%,31.37255%,17.254902%);fill-opacity:1;" d="M 36.71875 42.914062 C 36.863281 43.125 36.941406 43.359375 36.953125 43.621094 C 36.953125 43.9375 36.953125 44.253906 36.953125 44.566406 C 31.757812 44.566406 26.5625 44.566406 21.371094 44.566406 C 20.867188 44.554688 20.550781 44.320312 20.425781 43.859375 C 20.425781 43.542969 20.425781 43.226562 20.425781 42.914062 C 25.855469 42.914062 31.285156 42.914062 36.71875 42.914062 Z M 36.71875 42.914062 "/>
<path style=" stroke:none;fill-rule:evenodd;fill:rgb(42.745098%,16.078432%,9.019608%);fill-opacity:1;" d="M 36.953125 43.621094 C 37.179688 43.957031 37.257812 44.351562 37.191406 44.804688 C 31.875 44.882812 26.601562 44.804688 21.371094 44.566406 C 26.5625 44.566406 31.757812 44.566406 36.953125 44.566406 C 36.953125 44.253906 36.953125 43.9375 36.953125 43.621094 Z M 36.953125 43.621094 "/>
</g>
</svg>
